<mxfile host="Electron" modified="2024-03-25T21:20:39.339Z" agent="Mozilla/5.0 (Windows NT 10.0; Win64; x64) AppleWebKit/537.36 (KHTML, like Gecko) draw.io/24.1.0 Chrome/120.0.6099.109 Electron/28.1.0 Safari/537.36" etag="qNkeU5lSUabb10HrXgrE" version="24.1.0" type="device">
  <diagram id="q6NPcYScyVYSSum8sP3Y" name="Page-1">
    <mxGraphModel dx="2970" dy="1829" grid="1" gridSize="10" guides="1" tooltips="1" connect="1" arrows="1" fold="1" page="1" pageScale="1" pageWidth="1920" pageHeight="1200" math="0" shadow="0">
      <root>
        <mxCell id="0" />
        <mxCell id="1" parent="0" />
        <mxCell id="1w_YSjg4foJeL7dEHMr0-63" value="" style="rounded=0;whiteSpace=wrap;html=1;fontSize=25;fillColor=#f5f5f5;fontColor=#333333;strokeColor=#666666;direction=east;strokeWidth=2;fontStyle=1" parent="1" vertex="1">
          <mxGeometry x="-140" y="50" width="1710" height="1570" as="geometry" />
        </mxCell>
        <mxCell id="LbeWL6C_AdioLj_7k8LT-203" value="" style="rounded=0;whiteSpace=wrap;html=1;fontStyle=1;strokeWidth=2;" parent="1" vertex="1">
          <mxGeometry x="-120" y="100" width="1670" height="230" as="geometry" />
        </mxCell>
        <mxCell id="_AHCrULyoLMzivblui81-18" value="" style="rounded=0;whiteSpace=wrap;html=1;fontStyle=1;strokeWidth=2;" parent="1" vertex="1">
          <mxGeometry x="-120" y="1200" width="1670" height="400" as="geometry" />
        </mxCell>
        <mxCell id="_AHCrULyoLMzivblui81-2" value="" style="rounded=0;whiteSpace=wrap;html=1;fontStyle=1;strokeWidth=2;" parent="1" vertex="1">
          <mxGeometry x="-120" y="960" width="1670" height="240" as="geometry" />
        </mxCell>
        <mxCell id="1w_YSjg4foJeL7dEHMr0-59" value="" style="rounded=0;whiteSpace=wrap;html=1;fontStyle=1;strokeWidth=2;" parent="1" vertex="1">
          <mxGeometry x="-120" y="320" width="1670" height="640" as="geometry" />
        </mxCell>
        <mxCell id="1w_YSjg4foJeL7dEHMr0-23" style="edgeStyle=orthogonalEdgeStyle;rounded=0;orthogonalLoop=1;jettySize=auto;html=1;exitX=0.5;exitY=1;exitDx=0;exitDy=0;entryX=0.5;entryY=0;entryDx=0;entryDy=0;strokeColor=#00CC00;strokeWidth=2;fontStyle=1" parent="1" source="1w_YSjg4foJeL7dEHMr0-2" target="1w_YSjg4foJeL7dEHMr0-3" edge="1">
          <mxGeometry relative="1" as="geometry" />
        </mxCell>
        <mxCell id="1w_YSjg4foJeL7dEHMr0-24" value="INTRODUCER" style="edgeStyle=orthogonalEdgeStyle;rounded=0;orthogonalLoop=1;jettySize=auto;html=1;exitX=1;exitY=0.5;exitDx=0;exitDy=0;strokeColor=#FF0000;strokeWidth=2;fontStyle=1" parent="1" source="1w_YSjg4foJeL7dEHMr0-2" target="1w_YSjg4foJeL7dEHMr0-5" edge="1">
          <mxGeometry x="-0.2922" relative="1" as="geometry">
            <mxPoint x="840" y="380" as="targetPoint" />
            <mxPoint as="offset" />
          </mxGeometry>
        </mxCell>
        <mxCell id="1w_YSjg4foJeL7dEHMr0-2" value="IF PARENT/ GUADIAN" style="rounded=0;whiteSpace=wrap;html=1;strokeWidth=2;fontStyle=1;shape=rhombus;perimeter=rhombusPerimeter;" parent="1" vertex="1">
          <mxGeometry x="680" y="345" width="120" height="70" as="geometry" />
        </mxCell>
        <mxCell id="1w_YSjg4foJeL7dEHMr0-26" style="edgeStyle=orthogonalEdgeStyle;rounded=0;orthogonalLoop=1;jettySize=auto;html=1;exitX=0.5;exitY=1;exitDx=0;exitDy=0;strokeColor=#FF0000;strokeWidth=2;fontStyle=1" parent="1" source="1w_YSjg4foJeL7dEHMr0-3" target="1w_YSjg4foJeL7dEHMr0-15" edge="1">
          <mxGeometry relative="1" as="geometry" />
        </mxCell>
        <mxCell id="LbeWL6C_AdioLj_7k8LT-217" style="edgeStyle=orthogonalEdgeStyle;rounded=0;orthogonalLoop=1;jettySize=auto;html=1;exitX=0.5;exitY=1;exitDx=0;exitDy=0;entryX=0.5;entryY=0;entryDx=0;entryDy=0;strokeColor=#00CC00;strokeWidth=2;fontStyle=1;" parent="1" source="LbeWL6C_AdioLj_7k8LT-232" target="LbeWL6C_AdioLj_7k8LT-216" edge="1">
          <mxGeometry relative="1" as="geometry" />
        </mxCell>
        <mxCell id="1w_YSjg4foJeL7dEHMr0-3" value="IF &lt;br&gt;PARENT/ GUADIAN &lt;br&gt;UIN PROVIDED" style="rounded=0;whiteSpace=wrap;html=1;strokeWidth=2;fontStyle=1;shape=rhombus;perimeter=rhombusPerimeter;" parent="1" vertex="1">
          <mxGeometry x="667.5" y="436.5" width="145" height="91" as="geometry" />
        </mxCell>
        <mxCell id="1w_YSjg4foJeL7dEHMr0-21" style="edgeStyle=orthogonalEdgeStyle;rounded=0;orthogonalLoop=1;jettySize=auto;html=1;exitX=0.5;exitY=0;exitDx=0;exitDy=0;entryX=0;entryY=0.5;entryDx=0;entryDy=0;strokeColor=#00CC00;strokeWidth=2;fontStyle=1" parent="1" source="1w_YSjg4foJeL7dEHMr0-4" target="1w_YSjg4foJeL7dEHMr0-7" edge="1">
          <mxGeometry relative="1" as="geometry">
            <Array as="points">
              <mxPoint x="410" y="380" />
            </Array>
          </mxGeometry>
        </mxCell>
        <mxCell id="LbeWL6C_AdioLj_7k8LT-240" style="edgeStyle=orthogonalEdgeStyle;rounded=0;orthogonalLoop=1;jettySize=auto;html=1;exitX=0.5;exitY=1;exitDx=0;exitDy=0;strokeColor=#FF0000;strokeWidth=2;fontStyle=1;jumpStyle=none;jumpSize=11;" parent="1" source="1w_YSjg4foJeL7dEHMr0-4" target="LbeWL6C_AdioLj_7k8LT-239" edge="1">
          <mxGeometry relative="1" as="geometry">
            <Array as="points">
              <mxPoint x="410" y="700" />
              <mxPoint x="1220" y="700" />
            </Array>
          </mxGeometry>
        </mxCell>
        <mxCell id="1w_YSjg4foJeL7dEHMr0-4" value="IF &lt;br&gt;APPLICANT &lt;br&gt;NAME &amp;amp; PRIMARY SUBJECT NAME &lt;br&gt;IN POR &lt;br&gt;MATCH" style="rounded=0;whiteSpace=wrap;html=1;strokeWidth=2;fontStyle=1;shape=rhombus;perimeter=rhombusPerimeter;" parent="1" vertex="1">
          <mxGeometry x="330" y="422.5" width="160" height="135" as="geometry" />
        </mxCell>
        <mxCell id="1w_YSjg4foJeL7dEHMr0-5" value="IF &lt;br&gt;INTRODUCER &lt;br&gt;UIN PROVIDED" style="rounded=0;whiteSpace=wrap;html=1;strokeWidth=2;fontStyle=1;shape=rhombus;perimeter=rhombusPerimeter;" parent="1" vertex="1">
          <mxGeometry x="832.5" y="449.5" width="135" height="90" as="geometry" />
        </mxCell>
        <mxCell id="1w_YSjg4foJeL7dEHMr0-20" style="edgeStyle=orthogonalEdgeStyle;rounded=0;orthogonalLoop=1;jettySize=auto;html=1;exitX=1;exitY=0.5;exitDx=0;exitDy=0;strokeColor=#00CC00;strokeWidth=2;fontStyle=1" parent="1" source="1w_YSjg4foJeL7dEHMr0-6" target="1w_YSjg4foJeL7dEHMr0-4" edge="1">
          <mxGeometry relative="1" as="geometry" />
        </mxCell>
        <mxCell id="1w_YSjg4foJeL7dEHMr0-6" value="VERIFY APPLICANT NAME" style="rounded=0;whiteSpace=wrap;html=1;strokeWidth=2;fontStyle=1" parent="1" vertex="1">
          <mxGeometry x="150" y="460" width="120" height="60" as="geometry" />
        </mxCell>
        <mxCell id="1w_YSjg4foJeL7dEHMr0-22" style="edgeStyle=orthogonalEdgeStyle;rounded=0;orthogonalLoop=1;jettySize=auto;html=1;exitX=1;exitY=0.5;exitDx=0;exitDy=0;strokeColor=#00CC00;strokeWidth=2;fontStyle=1" parent="1" source="1w_YSjg4foJeL7dEHMr0-7" target="1w_YSjg4foJeL7dEHMr0-2" edge="1">
          <mxGeometry relative="1" as="geometry" />
        </mxCell>
        <mxCell id="1w_YSjg4foJeL7dEHMr0-7" value="CHECK TYPE OF RELATIONSHIP DECLARED" style="rounded=0;whiteSpace=wrap;html=1;strokeWidth=2;fontStyle=1" parent="1" vertex="1">
          <mxGeometry x="510" y="350" width="120" height="60" as="geometry" />
        </mxCell>
        <mxCell id="LbeWL6C_AdioLj_7k8LT-242" style="edgeStyle=orthogonalEdgeStyle;rounded=0;orthogonalLoop=1;jettySize=auto;html=1;exitX=0.5;exitY=1;exitDx=0;exitDy=0;strokeColor=#00CC00;strokeWidth=2;fontStyle=1;" parent="1" source="1w_YSjg4foJeL7dEHMr0-13" target="LbeWL6C_AdioLj_7k8LT-241" edge="1">
          <mxGeometry relative="1" as="geometry" />
        </mxCell>
        <mxCell id="1w_YSjg4foJeL7dEHMr0-13" value="CONTACT ISSUING AUTHORITY TO CONFIRM DETAILS" style="rounded=0;whiteSpace=wrap;html=1;strokeWidth=2;fontStyle=1" parent="1" vertex="1">
          <mxGeometry x="680" y="733" width="120" height="60" as="geometry" />
        </mxCell>
        <mxCell id="LbeWL6C_AdioLj_7k8LT-208" style="edgeStyle=orthogonalEdgeStyle;rounded=0;orthogonalLoop=1;jettySize=auto;html=1;exitX=0.5;exitY=1;exitDx=0;exitDy=0;strokeColor=#00CC00;strokeWidth=2;fontStyle=1;jumpStyle=arc;jumpSize=11;" parent="1" source="1w_YSjg4foJeL7dEHMr0-15" target="1w_YSjg4foJeL7dEHMr0-13" edge="1">
          <mxGeometry relative="1" as="geometry" />
        </mxCell>
        <mxCell id="1w_YSjg4foJeL7dEHMr0-15" value="IF POR &lt;br&gt;DOCUMENT HAS REFERENCE NUMBER &lt;br&gt;AND PARENT/ &lt;br&gt;GUADIAN &lt;br&gt;NAME" style="rounded=0;whiteSpace=wrap;html=1;strokeWidth=2;fontStyle=1;shape=rhombus;perimeter=rhombusPerimeter;" parent="1" vertex="1">
          <mxGeometry x="652.5" y="556" width="175" height="120" as="geometry" />
        </mxCell>
        <mxCell id="LbeWL6C_AdioLj_7k8LT-218" style="edgeStyle=orthogonalEdgeStyle;rounded=0;orthogonalLoop=1;jettySize=auto;html=1;exitX=0;exitY=0.5;exitDx=0;exitDy=0;entryX=1;entryY=0.5;entryDx=0;entryDy=0;strokeColor=#00CC00;strokeWidth=2;fontStyle=1;" parent="1" source="1w_YSjg4foJeL7dEHMr0-16" target="LbeWL6C_AdioLj_7k8LT-232" edge="1">
          <mxGeometry relative="1" as="geometry">
            <Array as="points">
              <mxPoint x="510" y="1390" />
              <mxPoint x="510" y="837" />
            </Array>
          </mxGeometry>
        </mxCell>
        <mxCell id="1w_YSjg4foJeL7dEHMr0-16" value="IF &lt;br&gt;AN AUTHORISED INTRODUCER" style="rounded=0;whiteSpace=wrap;html=1;strokeWidth=2;fontStyle=1;shape=rhombus;perimeter=rhombusPerimeter;" parent="1" vertex="1">
          <mxGeometry x="770.5" y="1350.5" width="140" height="80" as="geometry" />
        </mxCell>
        <mxCell id="1w_YSjg4foJeL7dEHMr0-61" value="ADMINISTRATOR" style="text;html=1;align=center;verticalAlign=middle;resizable=0;points=[];autosize=1;strokeColor=none;fillColor=none;fontSize=25;fontStyle=1;strokeWidth=2;horizontal=0;" parent="1" vertex="1">
          <mxGeometry x="-200" y="586.5" width="220" height="40" as="geometry" />
        </mxCell>
        <mxCell id="_AHCrULyoLMzivblui81-6" style="edgeStyle=orthogonalEdgeStyle;rounded=0;orthogonalLoop=1;jettySize=auto;html=1;exitX=0.5;exitY=1;exitDx=0;exitDy=0;exitPerimeter=0;entryX=0.5;entryY=0;entryDx=0;entryDy=0;strokeColor=#00CC00;strokeWidth=2;fontStyle=1;" parent="1" source="LbeWL6C_AdioLj_7k8LT-205" target="_AHCrULyoLMzivblui81-5" edge="1">
          <mxGeometry relative="1" as="geometry" />
        </mxCell>
        <mxCell id="_AHCrULyoLMzivblui81-3" value="&lt;b&gt;START&lt;/b&gt;" style="strokeWidth=2;html=1;shape=mxgraph.flowchart.terminator;whiteSpace=wrap;fillColor=#d5e8d4;strokeColor=#82b366;" parent="1" vertex="1">
          <mxGeometry x="-10" y="360" width="100" height="40" as="geometry" />
        </mxCell>
        <mxCell id="_AHCrULyoLMzivblui81-9" style="edgeStyle=orthogonalEdgeStyle;rounded=0;orthogonalLoop=1;jettySize=auto;html=1;exitX=1;exitY=0.5;exitDx=0;exitDy=0;entryX=0;entryY=0.5;entryDx=0;entryDy=0;strokeColor=#00CC00;strokeWidth=2;fontStyle=1;" parent="1" source="_AHCrULyoLMzivblui81-5" target="1w_YSjg4foJeL7dEHMr0-6" edge="1">
          <mxGeometry relative="1" as="geometry" />
        </mxCell>
        <mxCell id="_AHCrULyoLMzivblui81-5" value="IF POR&lt;br&gt;DOCUMENT IS &lt;br&gt;VALIDATED" style="rounded=0;whiteSpace=wrap;html=1;fontStyle=1;strokeWidth=2;shape=rhombus;perimeter=rhombusPerimeter;" parent="1" vertex="1">
          <mxGeometry x="-20" y="1349" width="120" height="100" as="geometry" />
        </mxCell>
        <mxCell id="_AHCrULyoLMzivblui81-10" value="&lt;b style=&quot;border-color: var(--border-color);&quot;&gt;TERMINATE PROCESS&lt;/b&gt;" style="strokeWidth=2;html=1;shape=mxgraph.flowchart.terminator;whiteSpace=wrap;fillColor=#f8cecc;strokeColor=#b85450;" parent="1" vertex="1">
          <mxGeometry x="1290" y="1520" width="160" height="60" as="geometry" />
        </mxCell>
        <mxCell id="LbeWL6C_AdioLj_7k8LT-68" value="ADMIN" style="shape=umlActor;verticalLabelPosition=bottom;verticalAlign=top;html=1;outlineConnect=0;fontStyle=1" parent="1" vertex="1">
          <mxGeometry x="-70" y="559" width="30" height="60" as="geometry" />
        </mxCell>
        <mxCell id="LbeWL6C_AdioLj_7k8LT-87" value="PRIVATE NETWORK&lt;br&gt;SYSTEMS (SERVER)" style="text;html=1;align=center;verticalAlign=middle;resizable=0;points=[];autosize=1;strokeColor=none;fillColor=none;fontStyle=1;fontSize=25;strokeWidth=2;horizontal=0;" parent="1" vertex="1">
          <mxGeometry x="-120" y="1270" width="80" height="260" as="geometry" />
        </mxCell>
        <mxCell id="LbeWL6C_AdioLj_7k8LT-88" value="PUBLIC&lt;br&gt;NETWORK&lt;br&gt;SYSTEMS&lt;br&gt;(CLIENT)" style="text;html=1;align=center;verticalAlign=middle;resizable=0;points=[];autosize=1;strokeColor=none;fillColor=none;fontStyle=1;fontSize=25;strokeWidth=2;horizontal=0;" parent="1" vertex="1">
          <mxGeometry x="-120" y="1010" width="140" height="140" as="geometry" />
        </mxCell>
        <mxCell id="LbeWL6C_AdioLj_7k8LT-178" value="VERIFYING RELATIONSHIP IN PROOF-OF-RELATIONSHIP" style="text;html=1;align=center;verticalAlign=middle;resizable=0;points=[];autosize=1;strokeColor=none;fillColor=none;fontSize=29;fontStyle=1" parent="1" vertex="1">
          <mxGeometry x="720" y="55" width="820" height="50" as="geometry" />
        </mxCell>
        <mxCell id="LbeWL6C_AdioLj_7k8LT-179" value="OB.3" style="text;html=1;align=center;verticalAlign=middle;resizable=0;points=[];autosize=1;strokeColor=none;fillColor=none;fontSize=29;fontStyle=1" parent="1" vertex="1">
          <mxGeometry x="610" y="50" width="90" height="50" as="geometry" />
        </mxCell>
        <mxCell id="LbeWL6C_AdioLj_7k8LT-181" value="PARENT/ &lt;br&gt;GUARDIAN/ &lt;br&gt;INTRODUCER" style="text;html=1;align=center;verticalAlign=middle;resizable=0;points=[];autosize=1;strokeColor=none;fillColor=none;fontSize=25;fontStyle=1;strokeWidth=2;horizontal=0;" parent="1" vertex="1">
          <mxGeometry x="-119" y="110" width="110" height="180" as="geometry" />
        </mxCell>
        <mxCell id="LbeWL6C_AdioLj_7k8LT-184" value="C" style="ellipse;whiteSpace=wrap;html=1;aspect=fixed;fontSize=28;fontColor=default;strokeWidth=2;fontStyle=1" parent="1" vertex="1">
          <mxGeometry x="-119" y="55" width="40" height="40" as="geometry" />
        </mxCell>
        <mxCell id="LbeWL6C_AdioLj_7k8LT-204" value="P/G/I" style="shape=umlActor;verticalLabelPosition=bottom;verticalAlign=top;html=1;outlineConnect=0;fontStyle=1" parent="1" vertex="1">
          <mxGeometry x="6" y="182" width="30" height="60" as="geometry" />
        </mxCell>
        <mxCell id="LbeWL6C_AdioLj_7k8LT-206" value="" style="edgeStyle=orthogonalEdgeStyle;rounded=0;orthogonalLoop=1;jettySize=auto;html=1;exitX=0.5;exitY=1;exitDx=0;exitDy=0;exitPerimeter=0;entryX=0.5;entryY=0;entryDx=0;entryDy=0;strokeColor=#00CC00;strokeWidth=2;fontStyle=1;" parent="1" source="_AHCrULyoLMzivblui81-3" target="LbeWL6C_AdioLj_7k8LT-205" edge="1">
          <mxGeometry relative="1" as="geometry">
            <mxPoint x="40" y="400" as="sourcePoint" />
            <mxPoint x="40" y="1349" as="targetPoint" />
          </mxGeometry>
        </mxCell>
        <mxCell id="LbeWL6C_AdioLj_7k8LT-205" value="ACCESS RID ACCOUNT FOR POR VALIDATION STATUS" style="rounded=0;whiteSpace=wrap;html=1;fontStyle=1;strokeWidth=2;shape=label;" parent="1" vertex="1">
          <mxGeometry x="-20" y="500" width="120" height="73.5" as="geometry" />
        </mxCell>
        <mxCell id="LbeWL6C_AdioLj_7k8LT-214" value="" style="group" parent="1" vertex="1" connectable="0">
          <mxGeometry x="612.5" y="1428.5" width="187.5" height="101.5" as="geometry" />
        </mxCell>
        <mxCell id="LbeWL6C_AdioLj_7k8LT-210" value="STORE POR VERIFICATION STATUS IN RID ACCOUNT" style="rounded=0;whiteSpace=wrap;html=1;fontStyle=1;strokeWidth=2;shape=label;boundedLbl=1;backgroundOutline=1;size=15;" parent="LbeWL6C_AdioLj_7k8LT-214" vertex="1">
          <mxGeometry x="29.61" y="30" width="157.89" height="71.5" as="geometry" />
        </mxCell>
        <mxCell id="LbeWL6C_AdioLj_7k8LT-211" value="IDA" style="ellipse;whiteSpace=wrap;html=1;fillColor=#dae8fc;strokeColor=#6c8ebf;gradientColor=#7ea6e0;fontStyle=1" parent="LbeWL6C_AdioLj_7k8LT-214" vertex="1">
          <mxGeometry x="29.605789473684204" width="29.605263157894736" height="26.92857142857143" as="geometry" />
        </mxCell>
        <mxCell id="LbeWL6C_AdioLj_7k8LT-212" value="KM" style="ellipse;whiteSpace=wrap;html=1;fillColor=#dae8fc;strokeColor=#6c8ebf;gradientColor=#7ea6e0;fontStyle=1" parent="LbeWL6C_AdioLj_7k8LT-214" vertex="1">
          <mxGeometry y="29.93" width="29.605263157894736" height="26.92857142857143" as="geometry" />
        </mxCell>
        <mxCell id="LbeWL6C_AdioLj_7k8LT-213" value="HSM" style="ellipse;whiteSpace=wrap;html=1;fillColor=#dae8fc;strokeColor=#6c8ebf;gradientColor=#7ea6e0;fontStyle=1" parent="LbeWL6C_AdioLj_7k8LT-214" vertex="1">
          <mxGeometry x="-2.4957894736842103" y="74.57142857142858" width="29.605263157894736" height="26.92857142857143" as="geometry" />
        </mxCell>
        <mxCell id="LbeWL6C_AdioLj_7k8LT-215" value="AC" style="ellipse;whiteSpace=wrap;html=1;fillColor=#dae8fc;strokeColor=#6c8ebf;gradientColor=#7ea6e0;fontStyle=1" parent="1" vertex="1">
          <mxGeometry x="782.89" y="1350.5" width="29.605263157894736" height="26.92857142857143" as="geometry" />
        </mxCell>
        <mxCell id="LbeWL6C_AdioLj_7k8LT-220" style="edgeStyle=orthogonalEdgeStyle;rounded=0;orthogonalLoop=1;jettySize=auto;html=1;exitX=0;exitY=0.5;exitDx=0;exitDy=0;entryX=0.5;entryY=1;entryDx=0;entryDy=0;strokeColor=#00CC00;strokeWidth=2;fontStyle=1;jumpStyle=arc;jumpSize=11;" parent="1" source="LbeWL6C_AdioLj_7k8LT-216" target="LbeWL6C_AdioLj_7k8LT-219" edge="1">
          <mxGeometry relative="1" as="geometry" />
        </mxCell>
        <mxCell id="LbeWL6C_AdioLj_7k8LT-216" value="GENERATE OTP FOR P/G/I AUTH.&lt;br&gt;&lt;u&gt;AU.2.A&lt;/u&gt;" style="rounded=0;whiteSpace=wrap;html=1;strokeWidth=2;fontStyle=1" parent="1" vertex="1">
          <mxGeometry x="350" y="1263" width="120" height="60" as="geometry" />
        </mxCell>
        <mxCell id="LbeWL6C_AdioLj_7k8LT-219" value="AUTH. USING OTP:&lt;br&gt;&lt;u&gt;AU.2.C&lt;/u&gt;" style="rounded=0;whiteSpace=wrap;html=1;strokeWidth=2;fontStyle=1" parent="1" vertex="1">
          <mxGeometry x="230" y="192" width="120" height="60" as="geometry" />
        </mxCell>
        <mxCell id="-Y4QsLbadmKc_mnjU_0V-6" style="edgeStyle=orthogonalEdgeStyle;rounded=0;orthogonalLoop=1;jettySize=auto;html=1;exitX=0.5;exitY=1;exitDx=0;exitDy=0;entryX=0.75;entryY=1;entryDx=0;entryDy=0;strokeColor=#FF0000;strokeWidth=2;fontStyle=1;" parent="1" source="LbeWL6C_AdioLj_7k8LT-228" target="LbeWL6C_AdioLj_7k8LT-263" edge="1">
          <mxGeometry relative="1" as="geometry" />
        </mxCell>
        <mxCell id="LbeWL6C_AdioLj_7k8LT-228" value="IF &lt;br&gt;AUTH. &lt;br&gt;SUCCESS" style="rounded=0;whiteSpace=wrap;html=1;strokeWidth=2;fontStyle=1;shape=rhombus;perimeter=rhombusPerimeter;" parent="1" vertex="1">
          <mxGeometry x="922.5" y="1247.5" width="110" height="75" as="geometry" />
        </mxCell>
        <mxCell id="LbeWL6C_AdioLj_7k8LT-230" value="AC" style="ellipse;whiteSpace=wrap;html=1;fillColor=#dae8fc;strokeColor=#6c8ebf;gradientColor=#7ea6e0;fontStyle=1" parent="1" vertex="1">
          <mxGeometry x="928.5" y="1240" width="29.605263157894736" height="26.92857142857143" as="geometry" />
        </mxCell>
        <mxCell id="LbeWL6C_AdioLj_7k8LT-233" value="" style="edgeStyle=orthogonalEdgeStyle;rounded=0;orthogonalLoop=1;jettySize=auto;html=1;exitX=0;exitY=0.5;exitDx=0;exitDy=0;entryX=0.5;entryY=0;entryDx=0;entryDy=0;strokeColor=#00CC00;strokeWidth=2;fontStyle=1;jumpStyle=arc;jumpSize=11;" parent="1" source="1w_YSjg4foJeL7dEHMr0-3" target="LbeWL6C_AdioLj_7k8LT-232" edge="1">
          <mxGeometry relative="1" as="geometry">
            <mxPoint x="668" y="495" as="sourcePoint" />
            <mxPoint x="600" y="1276" as="targetPoint" />
            <Array as="points">
              <mxPoint x="580" y="482" />
              <mxPoint x="580" y="750" />
              <mxPoint x="410" y="750" />
            </Array>
          </mxGeometry>
        </mxCell>
        <mxCell id="LbeWL6C_AdioLj_7k8LT-232" value="INITIATE OTP SELF VERIFICATION&lt;br&gt;FOR P/G/I" style="rounded=0;whiteSpace=wrap;html=1;strokeWidth=2;fontStyle=1" parent="1" vertex="1">
          <mxGeometry x="350" y="807" width="120" height="60" as="geometry" />
        </mxCell>
        <mxCell id="LbeWL6C_AdioLj_7k8LT-234" style="edgeStyle=orthogonalEdgeStyle;rounded=0;orthogonalLoop=1;jettySize=auto;html=1;exitX=1;exitY=0.5;exitDx=0;exitDy=0;entryX=0;entryY=0.5;entryDx=0;entryDy=0;strokeColor=#FF0000;strokeWidth=2;fontStyle=1;" parent="1" source="1w_YSjg4foJeL7dEHMr0-16" target="LbeWL6C_AdioLj_7k8LT-239" edge="1">
          <mxGeometry relative="1" as="geometry">
            <Array as="points">
              <mxPoint x="910" y="1353" />
              <mxPoint x="910" y="823" />
            </Array>
          </mxGeometry>
        </mxCell>
        <mxCell id="LbeWL6C_AdioLj_7k8LT-235" style="edgeStyle=orthogonalEdgeStyle;rounded=0;orthogonalLoop=1;jettySize=auto;html=1;exitX=0.75;exitY=0;exitDx=0;exitDy=0;entryX=0;entryY=0.5;entryDx=0;entryDy=0;strokeColor=#FF0000;strokeWidth=2;fontStyle=1;" parent="1" source="LbeWL6C_AdioLj_7k8LT-263" target="LbeWL6C_AdioLj_7k8LT-239" edge="1">
          <mxGeometry relative="1" as="geometry">
            <Array as="points">
              <mxPoint x="1066" y="1066" />
              <mxPoint x="1066" y="793" />
            </Array>
          </mxGeometry>
        </mxCell>
        <mxCell id="LbeWL6C_AdioLj_7k8LT-236" style="edgeStyle=orthogonalEdgeStyle;rounded=0;orthogonalLoop=1;jettySize=auto;html=1;exitX=1;exitY=0.5;exitDx=0;exitDy=0;entryX=0.5;entryY=0;entryDx=0;entryDy=0;strokeColor=#FF0000;strokeWidth=2;fontStyle=1;jumpStyle=arc;jumpSize=11;" parent="1" source="1w_YSjg4foJeL7dEHMr0-15" target="LbeWL6C_AdioLj_7k8LT-239" edge="1">
          <mxGeometry relative="1" as="geometry">
            <Array as="points">
              <mxPoint x="1220" y="616" />
            </Array>
          </mxGeometry>
        </mxCell>
        <mxCell id="LbeWL6C_AdioLj_7k8LT-257" style="edgeStyle=orthogonalEdgeStyle;rounded=0;orthogonalLoop=1;jettySize=auto;html=1;exitX=1;exitY=0.5;exitDx=0;exitDy=0;strokeColor=#00CC00;strokeWidth=2;fontStyle=1;startArrow=none;startFill=0;" parent="1" source="LbeWL6C_AdioLj_7k8LT-237" target="LbeWL6C_AdioLj_7k8LT-253" edge="1">
          <mxGeometry relative="1" as="geometry" />
        </mxCell>
        <mxCell id="LbeWL6C_AdioLj_7k8LT-237" value="UPDATE POR VERIFIED STATUS" style="rounded=0;whiteSpace=wrap;html=1;strokeWidth=2;fontStyle=1" parent="1" vertex="1">
          <mxGeometry x="1240" y="841.5" width="109" height="60" as="geometry" />
        </mxCell>
        <mxCell id="LbeWL6C_AdioLj_7k8LT-258" style="edgeStyle=orthogonalEdgeStyle;rounded=0;orthogonalLoop=1;jettySize=auto;html=1;exitX=1;exitY=0.5;exitDx=0;exitDy=0;strokeColor=#00CC00;strokeWidth=2;fontStyle=1;startArrow=none;startFill=0;" parent="1" source="LbeWL6C_AdioLj_7k8LT-239" target="LbeWL6C_AdioLj_7k8LT-253" edge="1">
          <mxGeometry relative="1" as="geometry" />
        </mxCell>
        <mxCell id="AOvg0ZcWw2pNJj_Pxxrh-3" style="edgeStyle=orthogonalEdgeStyle;rounded=0;orthogonalLoop=1;jettySize=auto;html=1;exitX=0.5;exitY=1;exitDx=0;exitDy=0;entryX=0.25;entryY=0;entryDx=0;entryDy=0;strokeColor=#00CC00;strokeWidth=2;fontStyle=1;startArrow=none;startFill=0;" parent="1" source="LbeWL6C_AdioLj_7k8LT-239" target="LbeWL6C_AdioLj_7k8LT-259" edge="1">
          <mxGeometry relative="1" as="geometry">
            <Array as="points">
              <mxPoint x="1220" y="960" />
              <mxPoint x="1222" y="960" />
            </Array>
          </mxGeometry>
        </mxCell>
        <mxCell id="LbeWL6C_AdioLj_7k8LT-239" value="UPDATE POR VERIFICATION FAILURE STATUS" style="rounded=0;whiteSpace=wrap;html=1;strokeWidth=2;fontStyle=1" parent="1" vertex="1">
          <mxGeometry x="1160" y="763" width="120" height="60" as="geometry" />
        </mxCell>
        <mxCell id="LbeWL6C_AdioLj_7k8LT-241" value="RECEIVE REPORT OF CONFIRMATION OF DETAILS" style="rounded=0;whiteSpace=wrap;html=1;strokeWidth=2;fontStyle=1" parent="1" vertex="1">
          <mxGeometry x="680" y="825" width="120" height="60" as="geometry" />
        </mxCell>
        <mxCell id="LbeWL6C_AdioLj_7k8LT-250" style="edgeStyle=orthogonalEdgeStyle;rounded=0;orthogonalLoop=1;jettySize=auto;html=1;exitX=0;exitY=0.5;exitDx=0;exitDy=0;entryX=0;entryY=0.5;entryDx=0;entryDy=0;strokeColor=#FF0000;strokeWidth=2;fontStyle=1;" parent="1" source="LbeWL6C_AdioLj_7k8LT-244" target="LbeWL6C_AdioLj_7k8LT-239" edge="1">
          <mxGeometry relative="1" as="geometry">
            <Array as="points">
              <mxPoint x="680" y="1308" />
              <mxPoint x="680" y="1140" />
              <mxPoint x="870" y="1140" />
              <mxPoint x="870" y="793" />
            </Array>
          </mxGeometry>
        </mxCell>
        <mxCell id="LbeWL6C_AdioLj_7k8LT-244" value="IF DETAILS MATCH" style="rounded=0;whiteSpace=wrap;html=1;strokeWidth=2;fontStyle=1;shape=rhombus;perimeter=rhombusPerimeter;" parent="1" vertex="1">
          <mxGeometry x="685" y="1270" width="110" height="75" as="geometry" />
        </mxCell>
        <mxCell id="LbeWL6C_AdioLj_7k8LT-248" value="UPDATE STATUS: POR VERIFICATION FAILURE" style="edgeStyle=orthogonalEdgeStyle;rounded=0;orthogonalLoop=1;jettySize=auto;html=1;exitX=0.25;exitY=1;exitDx=0;exitDy=0;entryX=1;entryY=0;entryDx=0;entryDy=32.875;entryPerimeter=0;strokeColor=#00CC00;strokeWidth=2;fontStyle=1;startArrow=none;startFill=0;jumpStyle=none;jumpSize=11;" parent="1" source="LbeWL6C_AdioLj_7k8LT-259" target="LbeWL6C_AdioLj_7k8LT-210" edge="1">
          <mxGeometry x="0.6443" y="1" relative="1" as="geometry">
            <mxPoint as="offset" />
          </mxGeometry>
        </mxCell>
        <mxCell id="LbeWL6C_AdioLj_7k8LT-249" value="UPDATE STATUS: POR VALIDATION SUCCESS" style="edgeStyle=orthogonalEdgeStyle;rounded=0;orthogonalLoop=1;jettySize=auto;html=1;exitX=0.75;exitY=1;exitDx=0;exitDy=0;entryX=1;entryY=0.75;entryDx=0;entryDy=0;strokeColor=#00CC00;strokeWidth=2;fontStyle=1;startArrow=none;startFill=0;" parent="1" source="LbeWL6C_AdioLj_7k8LT-259" target="LbeWL6C_AdioLj_7k8LT-210" edge="1">
          <mxGeometry x="0.5769" relative="1" as="geometry">
            <mxPoint as="offset" />
          </mxGeometry>
        </mxCell>
        <mxCell id="LbeWL6C_AdioLj_7k8LT-251" style="edgeStyle=orthogonalEdgeStyle;rounded=0;orthogonalLoop=1;jettySize=auto;html=1;exitX=0.5;exitY=1;exitDx=0;exitDy=0;entryX=0;entryY=0.5;entryDx=0;entryDy=0;entryPerimeter=0;strokeColor=#FF0000;strokeWidth=2;fontStyle=1;" parent="1" source="_AHCrULyoLMzivblui81-5" target="_AHCrULyoLMzivblui81-10" edge="1">
          <mxGeometry relative="1" as="geometry" />
        </mxCell>
        <mxCell id="LbeWL6C_AdioLj_7k8LT-252" value="" style="edgeStyle=orthogonalEdgeStyle;rounded=0;orthogonalLoop=1;jettySize=auto;html=1;strokeColor=#00CC00;fontStyle=1;strokeWidth=2;" parent="1" source="LbeWL6C_AdioLj_7k8LT-253" target="LbeWL6C_AdioLj_7k8LT-254" edge="1">
          <mxGeometry relative="1" as="geometry" />
        </mxCell>
        <mxCell id="LbeWL6C_AdioLj_7k8LT-253" value="LOGS THE PROCESS AND STATUS" style="rounded=0;whiteSpace=wrap;html=1;fontStyle=1;strokeWidth=2;shape=label;boundedLbl=1;backgroundOutline=1;size=15;" parent="1" vertex="1">
          <mxGeometry x="1390" y="1310" width="120" height="70" as="geometry" />
        </mxCell>
        <mxCell id="LbeWL6C_AdioLj_7k8LT-254" value="&lt;b&gt;END&lt;/b&gt;" style="strokeWidth=2;html=1;shape=mxgraph.flowchart.terminator;whiteSpace=wrap;fillColor=#f8cecc;strokeColor=#b85450;" parent="1" vertex="1">
          <mxGeometry x="1400" y="1409" width="100" height="40" as="geometry" />
        </mxCell>
        <mxCell id="LbeWL6C_AdioLj_7k8LT-255" value="IDA" style="ellipse;whiteSpace=wrap;html=1;fillColor=#dae8fc;strokeColor=#6c8ebf;gradientColor=#7ea6e0;fontStyle=1" parent="1" vertex="1">
          <mxGeometry x="1390" y="1284" width="30" height="26" as="geometry" />
        </mxCell>
        <mxCell id="LbeWL6C_AdioLj_7k8LT-256" style="edgeStyle=orthogonalEdgeStyle;rounded=0;orthogonalLoop=1;jettySize=auto;html=1;exitX=0.5;exitY=0;exitDx=0;exitDy=0;exitPerimeter=0;entryX=0;entryY=0.5;entryDx=0;entryDy=0;entryPerimeter=0;strokeColor=#00CC00;strokeWidth=2;fontStyle=1;startArrow=none;startFill=0;" parent="1" source="_AHCrULyoLMzivblui81-10" target="LbeWL6C_AdioLj_7k8LT-253" edge="1">
          <mxGeometry relative="1" as="geometry" />
        </mxCell>
        <mxCell id="LbeWL6C_AdioLj_7k8LT-259" value="MASK &amp;amp; ENCRYPT POR VERIFICATION STATUS" style="rounded=0;whiteSpace=wrap;html=1;fontStyle=1;strokeWidth=2;" parent="1" vertex="1">
          <mxGeometry x="1189.09" y="1046" width="130.91" height="60" as="geometry" />
        </mxCell>
        <mxCell id="LbeWL6C_AdioLj_7k8LT-260" value="CA" style="ellipse;whiteSpace=wrap;html=1;fillColor=#dae8fc;strokeColor=#6c8ebf;gradientColor=#7ea6e0;fontStyle=1" parent="1" vertex="1">
          <mxGeometry x="1160" y="1089" width="29.090909090909093" height="26" as="geometry" />
        </mxCell>
        <mxCell id="LbeWL6C_AdioLj_7k8LT-261" value="HSM" style="ellipse;whiteSpace=wrap;html=1;fillColor=#dae8fc;strokeColor=#6c8ebf;gradientColor=#7ea6e0;fontStyle=1" parent="1" vertex="1">
          <mxGeometry x="1160" y="1063" width="29.090909090909093" height="26" as="geometry" />
        </mxCell>
        <mxCell id="LbeWL6C_AdioLj_7k8LT-262" value="KM" style="ellipse;whiteSpace=wrap;html=1;fillColor=#dae8fc;strokeColor=#6c8ebf;gradientColor=#7ea6e0;fontStyle=1" parent="1" vertex="1">
          <mxGeometry x="1160" y="1037" width="29.090909090909093" height="26" as="geometry" />
        </mxCell>
        <mxCell id="LbeWL6C_AdioLj_7k8LT-264" value="CA" style="ellipse;whiteSpace=wrap;html=1;fillColor=#dae8fc;strokeColor=#6c8ebf;gradientColor=#7ea6e0;fontStyle=1" parent="1" vertex="1">
          <mxGeometry x="928.5" y="1109" width="29.090909090909093" height="26" as="geometry" />
        </mxCell>
        <mxCell id="LbeWL6C_AdioLj_7k8LT-265" value="HSM" style="ellipse;whiteSpace=wrap;html=1;fillColor=#dae8fc;strokeColor=#6c8ebf;gradientColor=#7ea6e0;fontStyle=1" parent="1" vertex="1">
          <mxGeometry x="928.5" y="1083" width="29.090909090909093" height="26" as="geometry" />
        </mxCell>
        <mxCell id="LbeWL6C_AdioLj_7k8LT-266" value="KM" style="ellipse;whiteSpace=wrap;html=1;fillColor=#dae8fc;strokeColor=#6c8ebf;gradientColor=#7ea6e0;fontStyle=1" parent="1" vertex="1">
          <mxGeometry x="928.5" y="1057" width="29.090909090909093" height="26" as="geometry" />
        </mxCell>
        <mxCell id="LbeWL6C_AdioLj_7k8LT-268" value="CA" style="ellipse;whiteSpace=wrap;html=1;fillColor=#dae8fc;strokeColor=#6c8ebf;gradientColor=#7ea6e0;fontStyle=1" parent="1" vertex="1">
          <mxGeometry x="645" y="1084" width="29.090909090909093" height="26" as="geometry" />
        </mxCell>
        <mxCell id="LbeWL6C_AdioLj_7k8LT-269" value="HSM" style="ellipse;whiteSpace=wrap;html=1;fillColor=#dae8fc;strokeColor=#6c8ebf;gradientColor=#7ea6e0;fontStyle=1" parent="1" vertex="1">
          <mxGeometry x="645" y="1058" width="29.090909090909093" height="26" as="geometry" />
        </mxCell>
        <mxCell id="LbeWL6C_AdioLj_7k8LT-270" value="KM" style="ellipse;whiteSpace=wrap;html=1;fillColor=#dae8fc;strokeColor=#6c8ebf;gradientColor=#7ea6e0;fontStyle=1" parent="1" vertex="1">
          <mxGeometry x="645" y="1032" width="29.090909090909093" height="26" as="geometry" />
        </mxCell>
        <mxCell id="lsJYVBiSprNXgMZddQJd-1" value="&lt;font style=&quot;font-size: 14px;&quot;&gt;PUBLIC NETWORK&lt;/font&gt;" style="swimlane;whiteSpace=wrap;html=1;" parent="1" vertex="1">
          <mxGeometry x="1570" y="1000" width="200" height="167" as="geometry" />
        </mxCell>
        <mxCell id="lsJYVBiSprNXgMZddQJd-2" value="DNS SERVERS" style="text;html=1;strokeColor=none;fillColor=none;align=center;verticalAlign=middle;whiteSpace=wrap;rounded=0;fontSize=14;" parent="lsJYVBiSprNXgMZddQJd-1" vertex="1">
          <mxGeometry y="27" width="200" height="28" as="geometry" />
        </mxCell>
        <mxCell id="lsJYVBiSprNXgMZddQJd-3" value="FTP SERVERS" style="text;html=1;strokeColor=none;fillColor=none;align=center;verticalAlign=middle;whiteSpace=wrap;rounded=0;fontSize=14;" parent="lsJYVBiSprNXgMZddQJd-1" vertex="1">
          <mxGeometry y="55" width="200" height="28" as="geometry" />
        </mxCell>
        <mxCell id="lsJYVBiSprNXgMZddQJd-4" value="MAIL SERVERS" style="text;html=1;strokeColor=none;fillColor=none;align=center;verticalAlign=middle;whiteSpace=wrap;rounded=0;fontSize=14;" parent="lsJYVBiSprNXgMZddQJd-1" vertex="1">
          <mxGeometry y="83" width="200" height="28" as="geometry" />
        </mxCell>
        <mxCell id="lsJYVBiSprNXgMZddQJd-5" value="PROXY SERVERS" style="text;html=1;strokeColor=none;fillColor=none;align=center;verticalAlign=middle;whiteSpace=wrap;rounded=0;fontSize=14;" parent="lsJYVBiSprNXgMZddQJd-1" vertex="1">
          <mxGeometry y="111" width="200" height="28" as="geometry" />
        </mxCell>
        <mxCell id="lsJYVBiSprNXgMZddQJd-6" value="WEB SERVERS" style="text;html=1;strokeColor=none;fillColor=none;align=center;verticalAlign=middle;whiteSpace=wrap;rounded=0;fontSize=14;" parent="lsJYVBiSprNXgMZddQJd-1" vertex="1">
          <mxGeometry y="139" width="200" height="28" as="geometry" />
        </mxCell>
        <mxCell id="lsJYVBiSprNXgMZddQJd-7" value="&lt;font style=&quot;font-size: 14px;&quot;&gt;LEGEND&lt;/font&gt;" style="swimlane;whiteSpace=wrap;html=1;" parent="1" vertex="1">
          <mxGeometry x="1570" y="100" width="200" height="258" as="geometry" />
        </mxCell>
        <mxCell id="lsJYVBiSprNXgMZddQJd-8" value="KM" style="ellipse;whiteSpace=wrap;html=1;fillColor=#dae8fc;strokeColor=#6c8ebf;gradientColor=#7ea6e0;fontStyle=1" parent="lsJYVBiSprNXgMZddQJd-7" vertex="1">
          <mxGeometry x="10" y="30" width="30" height="26" as="geometry" />
        </mxCell>
        <mxCell id="lsJYVBiSprNXgMZddQJd-9" value="IDA" style="ellipse;whiteSpace=wrap;html=1;fillColor=#dae8fc;strokeColor=#6c8ebf;gradientColor=#7ea6e0;fontStyle=1" parent="lsJYVBiSprNXgMZddQJd-7" vertex="1">
          <mxGeometry x="10" y="131" width="30" height="26" as="geometry" />
        </mxCell>
        <mxCell id="lsJYVBiSprNXgMZddQJd-10" value="HSM" style="ellipse;whiteSpace=wrap;html=1;fillColor=#dae8fc;strokeColor=#6c8ebf;gradientColor=#7ea6e0;fontStyle=1" parent="lsJYVBiSprNXgMZddQJd-7" vertex="1">
          <mxGeometry x="10" y="91" width="30" height="26" as="geometry" />
        </mxCell>
        <mxCell id="lsJYVBiSprNXgMZddQJd-11" value="KR" style="ellipse;whiteSpace=wrap;html=1;fillColor=#dae8fc;strokeColor=#6c8ebf;gradientColor=#7ea6e0;fontStyle=1" parent="lsJYVBiSprNXgMZddQJd-7" vertex="1">
          <mxGeometry x="10" y="59" width="30" height="26" as="geometry" />
        </mxCell>
        <mxCell id="lsJYVBiSprNXgMZddQJd-12" value="Key Manager" style="text;html=1;strokeColor=none;fillColor=none;align=center;verticalAlign=middle;whiteSpace=wrap;rounded=0;fontSize=14;" parent="lsJYVBiSprNXgMZddQJd-7" vertex="1">
          <mxGeometry x="40" y="30" width="160" height="28" as="geometry" />
        </mxCell>
        <mxCell id="lsJYVBiSprNXgMZddQJd-13" value="Key Revocation" style="text;html=1;strokeColor=none;fillColor=none;align=center;verticalAlign=middle;whiteSpace=wrap;rounded=0;fontSize=14;" parent="lsJYVBiSprNXgMZddQJd-7" vertex="1">
          <mxGeometry x="40" y="58" width="160" height="28" as="geometry" />
        </mxCell>
        <mxCell id="lsJYVBiSprNXgMZddQJd-14" value="Hardware Security Module" style="text;html=1;strokeColor=none;fillColor=none;align=center;verticalAlign=middle;whiteSpace=wrap;rounded=0;fontSize=14;" parent="lsJYVBiSprNXgMZddQJd-7" vertex="1">
          <mxGeometry x="40" y="90" width="160" height="28" as="geometry" />
        </mxCell>
        <mxCell id="lsJYVBiSprNXgMZddQJd-15" value="ID Authentication (DB)" style="text;html=1;strokeColor=none;fillColor=none;align=center;verticalAlign=middle;whiteSpace=wrap;rounded=0;fontSize=14;" parent="lsJYVBiSprNXgMZddQJd-7" vertex="1">
          <mxGeometry x="40" y="130" width="160" height="28" as="geometry" />
        </mxCell>
        <mxCell id="lsJYVBiSprNXgMZddQJd-16" value="AC" style="ellipse;whiteSpace=wrap;html=1;fillColor=#dae8fc;strokeColor=#6c8ebf;gradientColor=#7ea6e0;fontStyle=1" parent="lsJYVBiSprNXgMZddQJd-7" vertex="1">
          <mxGeometry x="10" y="161" width="30" height="26" as="geometry" />
        </mxCell>
        <mxCell id="lsJYVBiSprNXgMZddQJd-17" value="Access Control" style="text;html=1;strokeColor=none;fillColor=none;align=center;verticalAlign=middle;whiteSpace=wrap;rounded=0;fontSize=14;" parent="lsJYVBiSprNXgMZddQJd-7" vertex="1">
          <mxGeometry x="40" y="160" width="160" height="28" as="geometry" />
        </mxCell>
        <mxCell id="lsJYVBiSprNXgMZddQJd-18" value="Certificate Authority" style="text;html=1;strokeColor=none;fillColor=none;align=center;verticalAlign=middle;whiteSpace=wrap;rounded=0;fontSize=14;" parent="lsJYVBiSprNXgMZddQJd-7" vertex="1">
          <mxGeometry x="40" y="190" width="160" height="28" as="geometry" />
        </mxCell>
        <mxCell id="lsJYVBiSprNXgMZddQJd-19" value="CA" style="ellipse;whiteSpace=wrap;html=1;fillColor=#dae8fc;strokeColor=#6c8ebf;gradientColor=#7ea6e0;fontStyle=1" parent="lsJYVBiSprNXgMZddQJd-7" vertex="1">
          <mxGeometry x="10" y="191" width="30" height="26" as="geometry" />
        </mxCell>
        <mxCell id="lsJYVBiSprNXgMZddQJd-20" value="POR" style="text;html=1;align=center;verticalAlign=middle;resizable=0;points=[];autosize=1;strokeColor=none;fillColor=none;fontSize=14;rounded=0;" parent="lsJYVBiSprNXgMZddQJd-7" vertex="1">
          <mxGeometry x="5" y="228" width="50" height="30" as="geometry" />
        </mxCell>
        <mxCell id="lsJYVBiSprNXgMZddQJd-21" value="Proof of Relationship" style="text;html=1;align=center;verticalAlign=middle;resizable=0;points=[];autosize=1;strokeColor=none;fillColor=none;fontSize=14;rounded=0;" parent="lsJYVBiSprNXgMZddQJd-7" vertex="1">
          <mxGeometry x="50" y="228" width="150" height="30" as="geometry" />
        </mxCell>
        <mxCell id="LbeWL6C_AdioLj_7k8LT-229" style="edgeStyle=orthogonalEdgeStyle;rounded=0;orthogonalLoop=1;jettySize=auto;html=1;exitX=1;exitY=0.5;exitDx=0;exitDy=0;strokeColor=#00CC00;strokeWidth=2;fontStyle=1;jumpStyle=arc;jumpSize=11;entryX=0.148;entryY=0.041;entryDx=0;entryDy=0;entryPerimeter=0;" parent="1" source="LbeWL6C_AdioLj_7k8LT-219" target="LbeWL6C_AdioLj_7k8LT-263" edge="1">
          <mxGeometry relative="1" as="geometry" />
        </mxCell>
        <mxCell id="LbeWL6C_AdioLj_7k8LT-207" style="edgeStyle=orthogonalEdgeStyle;rounded=0;orthogonalLoop=1;jettySize=auto;html=1;exitX=0.5;exitY=1;exitDx=0;exitDy=0;strokeColor=#00CC00;strokeWidth=2;fontStyle=1;jumpStyle=arc;jumpSize=11;" parent="1" source="1w_YSjg4foJeL7dEHMr0-5" target="LbeWL6C_AdioLj_7k8LT-267" edge="1">
          <mxGeometry relative="1" as="geometry">
            <Array as="points">
              <mxPoint x="900" y="740" />
              <mxPoint x="841" y="740" />
            </Array>
          </mxGeometry>
        </mxCell>
        <mxCell id="LbeWL6C_AdioLj_7k8LT-247" style="edgeStyle=orthogonalEdgeStyle;rounded=0;orthogonalLoop=1;jettySize=auto;html=1;exitX=1;exitY=0.5;exitDx=0;exitDy=0;entryX=0;entryY=0.5;entryDx=0;entryDy=0;strokeColor=#00CC00;strokeWidth=2;fontStyle=1;jumpStyle=arc;jumpSize=11;" parent="1" source="LbeWL6C_AdioLj_7k8LT-228" target="LbeWL6C_AdioLj_7k8LT-237" edge="1">
          <mxGeometry relative="1" as="geometry" />
        </mxCell>
        <mxCell id="-Y4QsLbadmKc_mnjU_0V-4" style="edgeStyle=orthogonalEdgeStyle;rounded=0;orthogonalLoop=1;jettySize=auto;html=1;exitX=0.25;exitY=1;exitDx=0;exitDy=0;entryX=0.5;entryY=0;entryDx=0;entryDy=0;strokeColor=#00CC00;strokeWidth=2;fontStyle=1;" parent="1" source="LbeWL6C_AdioLj_7k8LT-263" target="LbeWL6C_AdioLj_7k8LT-228" edge="1">
          <mxGeometry relative="1" as="geometry">
            <Array as="points">
              <mxPoint x="977" y="1126" />
            </Array>
          </mxGeometry>
        </mxCell>
        <mxCell id="LbeWL6C_AdioLj_7k8LT-263" value="MASK &amp;amp; ENCRYPT OTP AUTH. STATUS" style="rounded=0;whiteSpace=wrap;html=1;fontStyle=1;strokeWidth=2;" parent="1" vertex="1">
          <mxGeometry x="957.59" y="1066" width="142.41" height="60" as="geometry" />
        </mxCell>
        <mxCell id="LbeWL6C_AdioLj_7k8LT-245" style="edgeStyle=orthogonalEdgeStyle;rounded=0;orthogonalLoop=1;jettySize=auto;html=1;exitX=0.5;exitY=1;exitDx=0;exitDy=0;strokeColor=#00CC00;strokeWidth=2;fontStyle=1;jumpStyle=arc;jumpSize=11;" parent="1" source="LbeWL6C_AdioLj_7k8LT-241" edge="1">
          <mxGeometry relative="1" as="geometry">
            <mxPoint x="740" y="1040" as="targetPoint" />
          </mxGeometry>
        </mxCell>
        <mxCell id="-Y4QsLbadmKc_mnjU_0V-1" style="edgeStyle=orthogonalEdgeStyle;rounded=0;orthogonalLoop=1;jettySize=auto;html=1;exitX=0.25;exitY=1;exitDx=0;exitDy=0;strokeColor=#00CC00;strokeWidth=2;fontStyle=1;jumpStyle=arc;jumpSize=11;" parent="1" source="LbeWL6C_AdioLj_7k8LT-267" target="LbeWL6C_AdioLj_7k8LT-244" edge="1">
          <mxGeometry relative="1" as="geometry">
            <Array as="points">
              <mxPoint x="740" y="1101" />
            </Array>
          </mxGeometry>
        </mxCell>
        <mxCell id="-Y4QsLbadmKc_mnjU_0V-2" style="edgeStyle=orthogonalEdgeStyle;rounded=0;orthogonalLoop=1;jettySize=auto;html=1;exitX=0.75;exitY=1;exitDx=0;exitDy=0;entryX=0.5;entryY=0;entryDx=0;entryDy=0;strokeColor=#00CC00;strokeWidth=2;fontStyle=1;jumpStyle=arc;jumpSize=11;" parent="1" source="LbeWL6C_AdioLj_7k8LT-267" target="1w_YSjg4foJeL7dEHMr0-16" edge="1">
          <mxGeometry relative="1" as="geometry">
            <Array as="points">
              <mxPoint x="841" y="1101" />
            </Array>
          </mxGeometry>
        </mxCell>
        <mxCell id="LbeWL6C_AdioLj_7k8LT-267" value="MASK &amp;amp; ENCRYPT POR AND P/G/I DETAILS" style="rounded=0;whiteSpace=wrap;html=1;fontStyle=1;strokeWidth=2;" parent="1" vertex="1">
          <mxGeometry x="674.09" y="1041" width="185.91" height="60" as="geometry" />
        </mxCell>
        <mxCell id="LbeWL6C_AdioLj_7k8LT-281" value="" style="group" parent="1" vertex="1" connectable="0">
          <mxGeometry x="-121.75" y="305" width="1670" height="60" as="geometry" />
        </mxCell>
        <mxCell id="LbeWL6C_AdioLj_7k8LT-282" value="" style="group" parent="LbeWL6C_AdioLj_7k8LT-281" vertex="1" connectable="0">
          <mxGeometry y="2" width="1669.9999999999995" height="40" as="geometry" />
        </mxCell>
        <mxCell id="LbeWL6C_AdioLj_7k8LT-283" value="&lt;b&gt;SINGLE FIREWALL&lt;/b&gt;" style="shape=label;whiteSpace=wrap;html=1;boundedLbl=1;backgroundOutline=1;darkOpacity=0.05;darkOpacity2=0.1;fillColor=#e51400;fontColor=#ffffff;strokeColor=#B20000;rounded=0;" parent="LbeWL6C_AdioLj_7k8LT-282" vertex="1">
          <mxGeometry width="1669.9999999999995" height="20" as="geometry" />
        </mxCell>
        <mxCell id="LbeWL6C_AdioLj_7k8LT-285" value="API/ HTTPS (SSL/TLS)" style="shape=label;whiteSpace=wrap;html=1;boundedLbl=1;backgroundOutline=1;darkOpacity=0.05;darkOpacity2=0.1;fillColor=#f8cecc;strokeColor=#b85450;rounded=0;fontStyle=1" parent="LbeWL6C_AdioLj_7k8LT-281" vertex="1">
          <mxGeometry y="-18" width="1669.9999999999995" height="20" as="geometry" />
        </mxCell>
        <mxCell id="LbeWL6C_AdioLj_7k8LT-246" style="edgeStyle=orthogonalEdgeStyle;rounded=0;orthogonalLoop=1;jettySize=auto;html=1;exitX=1;exitY=0.5;exitDx=0;exitDy=0;entryX=0;entryY=0.5;entryDx=0;entryDy=0;strokeColor=#00CC00;strokeWidth=2;fontStyle=1;jumpStyle=arc;jumpSize=11;" parent="1" source="LbeWL6C_AdioLj_7k8LT-244" target="LbeWL6C_AdioLj_7k8LT-237" edge="1">
          <mxGeometry relative="1" as="geometry">
            <Array as="points">
              <mxPoint x="880" y="1308" />
              <mxPoint x="880" y="872" />
            </Array>
          </mxGeometry>
        </mxCell>
        <mxCell id="AOvg0ZcWw2pNJj_Pxxrh-4" style="edgeStyle=orthogonalEdgeStyle;rounded=0;orthogonalLoop=1;jettySize=auto;html=1;exitX=0.5;exitY=1;exitDx=0;exitDy=0;entryX=0.817;entryY=-0.013;entryDx=0;entryDy=0;entryPerimeter=0;strokeColor=#00CC00;strokeWidth=2;fontStyle=1;startArrow=none;startFill=0;" parent="1" source="LbeWL6C_AdioLj_7k8LT-237" target="LbeWL6C_AdioLj_7k8LT-259" edge="1">
          <mxGeometry relative="1" as="geometry" />
        </mxCell>
        <mxCell id="AOvg0ZcWw2pNJj_Pxxrh-5" style="edgeStyle=orthogonalEdgeStyle;rounded=0;orthogonalLoop=1;jettySize=auto;html=1;exitX=0.5;exitY=0;exitDx=0;exitDy=0;entryX=0;entryY=0.25;entryDx=0;entryDy=0;strokeColor=#00CC00;strokeWidth=2;fontStyle=1;startArrow=none;startFill=0;" parent="1" source="LbeWL6C_AdioLj_7k8LT-210" target="LbeWL6C_AdioLj_7k8LT-253" edge="1">
          <mxGeometry relative="1" as="geometry">
            <Array as="points">
              <mxPoint x="721" y="1440" />
              <mxPoint x="1130" y="1440" />
              <mxPoint x="1130" y="1328" />
            </Array>
          </mxGeometry>
        </mxCell>
        <mxCell id="-Y4QsLbadmKc_mnjU_0V-3" value="AC" style="ellipse;whiteSpace=wrap;html=1;fillColor=#dae8fc;strokeColor=#6c8ebf;gradientColor=#7ea6e0;fontStyle=1" parent="1" vertex="1">
          <mxGeometry x="691.45" y="1261" width="29.605263157894736" height="26.92857142857143" as="geometry" />
        </mxCell>
        <mxCell id="LbeWL6C_AdioLj_7k8LT-98" value="" style="group" parent="1" vertex="1" connectable="0">
          <mxGeometry x="-120" y="1180" width="1670" height="60" as="geometry" />
        </mxCell>
        <mxCell id="LbeWL6C_AdioLj_7k8LT-99" value="" style="group" parent="LbeWL6C_AdioLj_7k8LT-98" vertex="1" connectable="0">
          <mxGeometry y="2" width="1669.9999999999995" height="40" as="geometry" />
        </mxCell>
        <mxCell id="LbeWL6C_AdioLj_7k8LT-100" value="&lt;b&gt;SINGLE/ DUAL FIREWALL&lt;/b&gt;" style="shape=label;whiteSpace=wrap;html=1;boundedLbl=1;backgroundOutline=1;darkOpacity=0.05;darkOpacity2=0.1;fillColor=#e51400;fontColor=#ffffff;strokeColor=#B20000;rounded=0;" parent="LbeWL6C_AdioLj_7k8LT-99" vertex="1">
          <mxGeometry width="1669.9999999999995" height="20" as="geometry" />
        </mxCell>
        <mxCell id="LbeWL6C_AdioLj_7k8LT-101" value="&lt;b&gt;IDS, IPS, HONEYPOT&lt;/b&gt;" style="shape=label;whiteSpace=wrap;html=1;boundedLbl=1;backgroundOutline=1;darkOpacity=0.05;darkOpacity2=0.1;fillColor=#f0a30a;strokeColor=#BD7000;rounded=0;fontColor=#000000;" parent="LbeWL6C_AdioLj_7k8LT-99" vertex="1">
          <mxGeometry y="20" width="1669.9999999999995" height="20" as="geometry" />
        </mxCell>
        <mxCell id="LbeWL6C_AdioLj_7k8LT-102" value="API/ HTTPS (SSL/TLS)" style="shape=label;whiteSpace=wrap;html=1;boundedLbl=1;backgroundOutline=1;darkOpacity=0.05;darkOpacity2=0.1;fillColor=#f8cecc;strokeColor=#b85450;rounded=0;fontStyle=1" parent="LbeWL6C_AdioLj_7k8LT-98" vertex="1">
          <mxGeometry y="-18" width="1669.9999999999995" height="20" as="geometry" />
        </mxCell>
        <mxCell id="LbeWL6C_AdioLj_7k8LT-93" value="" style="group" parent="1" vertex="1" connectable="0">
          <mxGeometry x="-120" y="955" width="1670" height="60" as="geometry" />
        </mxCell>
        <mxCell id="LbeWL6C_AdioLj_7k8LT-94" value="" style="group" parent="LbeWL6C_AdioLj_7k8LT-93" vertex="1" connectable="0">
          <mxGeometry y="2" width="1669.9999999999995" height="40" as="geometry" />
        </mxCell>
        <mxCell id="LbeWL6C_AdioLj_7k8LT-96" value="&lt;b&gt;IDS, IPS, HONEYPOT&lt;/b&gt;" style="shape=label;whiteSpace=wrap;html=1;boundedLbl=1;backgroundOutline=1;darkOpacity=0.05;darkOpacity2=0.1;fillColor=#f0a30a;strokeColor=#BD7000;rounded=0;fontColor=#000000;" parent="LbeWL6C_AdioLj_7k8LT-94" vertex="1">
          <mxGeometry y="20" width="1669.9999999999995" height="20" as="geometry" />
        </mxCell>
        <mxCell id="LbeWL6C_AdioLj_7k8LT-95" value="&lt;b&gt;SINGLE/ DUAL FIREWALL&lt;/b&gt;" style="shape=label;whiteSpace=wrap;html=1;boundedLbl=1;backgroundOutline=1;darkOpacity=0.05;darkOpacity2=0.1;fillColor=#e51400;fontColor=#ffffff;strokeColor=#B20000;rounded=0;" parent="LbeWL6C_AdioLj_7k8LT-94" vertex="1">
          <mxGeometry width="1669.9999999999995" height="20" as="geometry" />
        </mxCell>
        <mxCell id="LbeWL6C_AdioLj_7k8LT-97" value="API/ HTTPS (SSL/TLS)" style="shape=label;whiteSpace=wrap;html=1;boundedLbl=1;backgroundOutline=1;darkOpacity=0.05;darkOpacity2=0.1;fillColor=#f8cecc;strokeColor=#b85450;rounded=0;fontStyle=1" parent="LbeWL6C_AdioLj_7k8LT-93" vertex="1">
          <mxGeometry y="-18" width="1669.9999999999995" height="20" as="geometry" />
        </mxCell>
        <mxCell id="dQaAuN3-YBhdhyqi5sxE-1" value="&lt;div style=&quot;font-size: 18px;&quot;&gt;&lt;font style=&quot;font-size: 18px;&quot;&gt;&lt;b style=&quot;font-size: 18px;&quot;&gt;Purpose:&lt;/b&gt;&lt;/font&gt;&lt;/div&gt;&lt;div style=&quot;font-size: 18px;&quot;&gt;This SOP o&lt;span style=&quot;background-color: rgb(255, 255, 255); color: rgb(13, 13, 13); font-size: 18px; white-space-collapse: preserve;&quot;&gt;utlines the verification process for documents proving relationships.&lt;/span&gt;&lt;br style=&quot;font-size: 18px;&quot;&gt;&lt;/div&gt;" style="whiteSpace=wrap;html=1;align=left;rounded=0;strokeWidth=2;verticalAlign=middle;fontFamily=Helvetica;fontSize=18;fontStyle=0;" vertex="1" parent="1">
          <mxGeometry x="-140" y="-10" width="1710" height="60" as="geometry" />
        </mxCell>
      </root>
    </mxGraphModel>
  </diagram>
</mxfile>
